# xmcd
#
# Track frame offsets: 
#        150
#        18459
#        30344
#        47704
#        63502
#
# Disc length: 1062 seconds
#
# Revision: 0
# Processed by: cddbd v1.5.2PL0 Copyright (c) Steve Scherf et al.
# Submitted via: ExactAudioCopy v1.0b1
#
DISCID=37042405
DTITLE=Fantastic Negrito - Fantastic Negrito EP
DYEAR=2012
DGENRE=Blues
TTITLE0=An Honest Man
TTITLE1=Night Has Turned To Day
TTITLE2=The Time Has Come
TTITLE3=A New Beginning
TTITLE4=It's A Long Long Road
EXTD=
EXTT0=
EXTT1=
EXTT2=
EXTT3=
EXTT4=
PLAYORDER=
